Coordinates
version=1
nRows=16
nColumns=63
inDegrees=yes

Units are S.I. units (second, meters, Newtons, ...)
If the header above contains a line with 'inDegrees', this indicates whether rotational values are in degrees (yes) or radians (no).

endheader
time	pelvis_tilt	pelvis_list	pelvis_rotation	pelvis_tx	pelvis_ty	pelvis_tz	hip_flexion_r	hip_adduction_r	hip_rotation_r	knee_angle_r	knee_angle_r_beta	ankle_angle_r	subtalar_angle_r	mtp_angle_r	hip_flexion_l	hip_adduction_l	hip_rotation_l	knee_angle_l	knee_angle_l_beta	ankle_angle_l	subtalar_angle_l	mtp_angle_l	L5_S1_Flex_Ext	L5_S1_Lat_Bending	L5_S1_axial_rotation	L4_L5_Flex_Ext	L4_L5_Lat_Bending	L4_L5_axial_rotation	L3_L4_Flex_Ext	L3_L4_Lat_Bending	L3_L4_axial_rotation	L2_L3_Flex_Ext	L2_L3_Lat_Bending	L2_L3_axial_rotation	L1_L2_Flex_Ext	L1_L2_Lat_Bending	L1_L2_axial_rotation	L1_T12_Flex_Ext	L1_T12_Lat_Bending	L1_T12_axial_rotation	Abs_r3	Abs_r2	Abs_r1	Abs_t1	Abs_t2	neck_flexion	neck_bending	neck_rotation	arm_flex_r	arm_add_r	arm_rot_r	elbow_flex_r	pro_sup_r	wrist_flex_r	wrist_dev_r	arm_flex_l	arm_add_l	arm_rot_l	elbow_flex_l	pro_sup_l	wrist_flex_l	wrist_dev_l
1.603448	-4.231653	-8.023069	84.351513	0.096906	0.982464	0.292442	8.518476	-3.933436	-14.887460	14.547940	0.253909	17.274053	8.505571	0.000000	7.149389	3.916515	-1.962994	9.900975	0.172805	15.416057	-6.541793	0.000000	0.021037	-1.024612	1.541049	0.039069	-1.362734	1.637364	0.034563	-2.491242	1.637364	0.024044	-2.491242	1.348418	0.019535	-2.089389	1.252102	0.012021	-1.587124	1.155787	0.150269	-11.590618	8.570851	0.000000	0.000000	20.076697	-7.396892	-13.623554	-15.534718	-56.932600	-38.533731	29.070990	49.771134	-7.064758	10.892939	-21.535055	-60.924506	-47.798690	32.411571	42.261105	-2.646310	-14.371124
1.620690	-4.217769	-8.013955	84.934277	0.095399	0.982021	0.289719	8.618759	-3.989465	-14.198451	15.129371	0.264057	18.100140	7.246963	0.000000	7.010871	4.057461	-1.613113	10.141314	0.176999	15.723246	-6.274143	0.000000	0.034573	-1.050650	1.464470	0.064206	-1.397364	1.555999	0.056800	-2.554550	1.555999	0.039513	-2.554550	1.281411	0.032104	-2.142485	1.189882	0.019755	-1.627456	1.098352	0.246951	-11.885160	8.144942	0.000000	0.000000	19.379077	-7.970576	-16.405380	-16.310222	-56.415416	-45.977892	31.065650	50.914547	-6.493303	9.791609	-23.711027	-59.994279	-61.031870	36.660609	48.274009	-1.251001	-13.690832
1.637931	-4.218445	-7.965731	85.556930	0.093732	0.981547	0.286837	8.664255	-4.065426	-13.447999	15.697939	0.273981	18.997007	6.014036	0.000000	6.839133	4.225874	-1.205212	10.398814	0.181494	16.045464	-6.078895	0.000000	0.046485	-1.074497	1.397630	0.086327	-1.429081	1.484981	0.076370	-2.612533	1.484981	0.053128	-2.612533	1.222926	0.043166	-2.191115	1.135574	0.026561	-1.664396	1.048222	0.332037	-12.154927	7.773197	0.000000	0.000000	18.615825	-8.459450	-18.909966	-17.002998	-55.631605	-52.108543	33.060623	51.900613	-6.337645	8.034028	-25.350407	-58.966109	-72.199542	40.663298	54.139703	-0.393750	-12.821351
1.655172	-4.249032	-7.891297	86.220773	0.091900	0.981005	0.283814	8.665303	-4.180114	-12.690495	16.255835	0.283718	19.940562	4.832171	0.000000	6.652580	4.432109	-0.741077	10.669521	0.186218	16.393064	-5.957714	0.000000	0.057347	-1.096424	1.338923	0.106499	-1.458244	1.422605	0.094216	-2.665845	1.422605	0.065542	-2.665845	1.171557	0.053253	-2.235828	1.087875	0.032768	-1.698361	1.004192	0.409625	-12.402967	7.446685	0.000000	0.000000	17.846432	-8.802824	-20.952133	-18.068841	-54.563930	-59.850994	35.425951	54.443735	-6.909295	6.232612	-26.373468	-57.883152	-80.806675	44.261543	59.696981	-0.069112	-11.837651
1.672414	-4.316892	-7.782858	86.907490	0.089961	0.980438	0.280692	8.608700	-4.334196	-11.926113	16.793064	0.293094	20.866856	3.662808	0.000000	6.446159	4.677073	-0.242657	10.946919	0.191060	16.765315	-5.905929	0.000000	0.066997	-1.117533	1.280268	0.124420	-1.486319	1.360284	0.110070	-2.717170	1.360284	0.076571	-2.717170	1.120234	0.062214	-2.278874	1.040217	0.038282	-1.731059	0.960201	0.478554	-12.641760	7.120464	0.000000	0.000000	17.073997	-8.902619	-22.372536	-19.146647	-53.401854	-66.719195	37.587842	56.516699	-8.046064	4.320149	-26.830262	-56.817330	-86.394117	47.228912	64.702059	-0.562337	-10.959255
1.689655	-4.428305	-7.636861	87.599548	0.087974	0.979847	0.277514	8.489397	-4.535021	-11.185541	17.308152	0.302084	21.757030	2.523383	0.000000	6.224481	4.959105	0.254696	11.235238	0.196092	17.185062	-5.893604	0.000000	0.074959	-1.137459	1.218603	0.139206	-1.512821	1.294765	0.123150	-2.765619	1.294765	0.085671	-2.765619	1.066277	0.069607	-2.319507	0.990115	0.042832	-1.761925	0.913952	0.535424	-12.867168	6.777502	0.000000	0.000000	16.311012	-8.717854	-23.018147	-20.118080	-52.256743	-72.359319	39.328181	58.113012	-9.533432	2.465383	-26.746801	-55.852776	-88.657327	49.303048	68.950855	-1.791068	-10.386733
1.706897	-4.588856	-7.452359	88.278136	0.086003	0.979178	0.274358	8.319144	-4.786437	-10.482282	17.816282	0.310953	22.616693	1.413914	0.000000	6.008439	5.280883	0.771641	11.561911	0.201793	17.672740	-5.951705	0.000000	0.079645	-1.154392	1.153452	0.147909	-1.535341	1.225543	0.130849	-2.806789	1.225543	0.091026	-2.806789	1.009270	0.073958	-2.354036	0.937180	0.045509	-1.788153	0.865089	0.568897	-13.058713	6.415154	0.000000	0.000000	15.576001	-8.267573	-22.705440	-21.141463	-50.948737	-80.797088	40.935412	63.418702	-11.198481	1.206462	-26.044000	-55.045225	-87.025794	50.189764	72.335308	-3.747777	-10.103804
1.724138	-4.785499	-7.206128	88.936147	0.084085	0.978468	0.271267	8.080026	-5.075652	-9.861552	18.335537	0.320015	23.417799	0.330549	0.000000	5.773918	5.633168	1.345529	11.927884	0.208181	18.251962	-6.126089	0.000000	0.077655	-1.166977	1.081029	0.144212	-1.552080	1.148594	0.127579	-2.837389	1.148594	0.088751	-2.837389	0.945901	0.072110	-2.379700	0.878336	0.044372	-1.807648	0.810772	0.554679	-13.201081	6.012362	0.000000	0.000000	14.851539	-7.500031	-21.325307	-21.646139	-50.084954	-84.014337	41.418955	65.576501	-12.587141	-0.281489	-24.623355	-54.456784	-81.056221	49.613684	74.768534	-6.445655	-10.064723
1.741379	-5.056291	-6.918401	89.571851	0.082339	0.977619	0.268348	7.820341	-5.413921	-9.184506	18.893748	0.329758	24.172755	-0.922477	0.000000	5.570990	6.021895	1.737381	12.368800	0.215876	18.988547	-6.036062	0.000000	0.070274	-1.179747	0.991900	0.130507	-1.569063	1.053894	0.115454	-2.868436	1.053894	0.080317	-2.868436	0.867912	0.065257	-2.405740	0.805919	0.040155	-1.827428	0.743925	0.501964	-13.345531	5.516649	0.000000	0.000000	14.223382	-6.683751	-19.069331	-21.673023	-49.534075	-83.140335	40.945281	65.950396	-13.811978	-1.676320	-22.529850	-54.272489	-70.418044	47.251708	75.089093	-9.369916	-10.540743
1.758621	-5.384714	-6.591041	90.171127	0.080601	0.976334	0.265664	7.579096	-5.816585	-8.563052	19.584977	0.341822	24.950728	-2.172553	0.000000	5.419090	6.466325	2.168687	12.931188	0.225692	19.884636	-6.042364	0.000000	0.052166	-1.198721	0.870985	0.096877	-1.594299	0.925421	0.085703	-2.914570	0.925421	0.059620	-2.914570	0.762111	0.048441	-2.444432	0.707675	0.029808	-1.856819	0.653238	0.372615	-13.560170	4.844155	0.000000	0.000000	13.888771	-5.696943	-16.396888	-21.045217	-49.261637	-78.003033	39.470013	64.617472	-14.773921	-2.953803	-21.695849	-53.219918	-70.608505	46.830833	82.898289	-12.078388	-9.862664
1.775862	-5.740766	-6.212181	90.735581	0.078876	0.974663	0.263342	7.366455	-6.245791	-7.973767	20.424538	0.356475	25.700420	-3.469462	0.000000	5.335015	6.930056	2.544792	13.653532	0.238299	20.946968	-5.992098	0.000000	0.020782	-1.214964	0.736904	0.038594	-1.615902	0.782961	0.034143	-2.954063	0.782961	0.023752	-2.954063	0.644791	0.019298	-2.477554	0.598735	0.011875	-1.881979	0.552678	0.148444	-13.743915	4.098441	0.000000	0.000000	13.802052	-4.748452	-13.290388	-20.167924	-49.214484	-69.885992	37.249201	62.014675	-15.483397	-3.982959	-20.476537	-52.094815	-67.537120	45.566649	87.096359	-14.348358	-9.437991
1.793103	-6.136113	-5.794577	91.243132	0.077263	0.972469	0.261477	7.241984	-6.703126	-7.366435	21.479743	0.374892	26.450818	-4.821728	0.000000	5.349345	7.414901	2.840521	14.565298	0.254212	22.163443	-5.873298	0.000000	-0.023073	-1.231331	0.595515	-0.042849	-1.637671	0.632735	-0.037907	-2.993859	0.632735	-0.026370	-2.993859	0.521076	-0.021426	-2.510931	0.483856	-0.013184	-1.907332	0.446636	-0.164810	-13.929067	3.312077	0.000000	0.000000	14.008771	-3.844259	-9.858871	-19.129993	-49.178211	-60.036775	34.513099	59.156997	-15.938243	-4.498120	-18.902096	-50.863887	-61.782982	43.645292	88.174348	-16.171562	-9.129284
1.810345	-6.557095	-5.348326	91.699827	0.075754	0.969674	0.260128	7.237254	-7.176246	-6.732515	22.786224	0.397695	27.208071	-6.247019	0.000000	5.480804	7.912512	3.074276	15.693915	0.273910	23.506232	-5.718351	0.000000	-0.078314	-1.246499	0.451409	-0.145438	-1.657843	0.479622	-0.128663	-3.030737	0.479622	-0.089505	-3.030737	0.394983	-0.072723	-2.541860	0.366770	-0.044749	-1.930826	0.338557	-0.559391	-14.100641	2.510602	0.000000	0.000000	14.520078	-2.965853	-6.163091	-18.079135	-49.142090	-48.526406	31.397605	55.599143	-16.266987	-4.617183	-16.955702	-49.462646	-53.808122	41.213713	86.744457	-17.605399	-8.825308
1.827586	-7.009069	-4.897249	92.123878	0.074375	0.966245	0.259320	7.382011	-7.672882	-6.097015	24.352407	0.425030	27.993413	-7.710894	0.000000	5.751652	8.434642	3.272690	17.042928	0.297455	24.920509	-5.572050	0.000000	-0.141107	-1.261584	0.302205	-0.262049	-1.677907	0.321092	-0.231824	-3.067416	0.321092	-0.161271	-3.067416	0.264429	-0.131032	-2.572622	0.245541	-0.080628	-1.954194	0.226653	-1.007910	-14.271292	1.680771	0.000000	0.000000	15.277492	-2.007698	-2.086136	-16.901187	-48.937867	-36.298569	28.068395	52.284756	-16.412089	-4.215113	-14.696714	-47.821195	-43.437617	38.252433	83.090078	-18.522106	-8.558884
1.844828	-7.454994	-4.470169	92.504456	0.073113	0.962200	0.259011	7.703484	-8.151521	-5.438503	26.162225	0.456617	28.810888	-9.227327	0.000000	6.181405	8.945774	3.424328	18.607077	0.324755	26.379412	-5.446233	0.000000	-0.205045	-1.272084	0.153463	-0.380789	-1.691872	0.163055	-0.336868	-3.092946	0.163055	-0.234346	-3.092946	0.134281	-0.190405	-2.594034	0.124689	-0.117163	-1.970459	0.115098	-1.464614	-14.390072	0.853518	0.000000	0.000000	16.094751	-0.875821	2.509481	-15.672787	-48.553057	-23.397929	24.648161	48.828443	-16.345203	-3.482089	-12.231511	-45.925126	-31.845161	34.930889	77.969815	-18.960373	-8.408527
1.862069	-7.851990	-4.077007	92.888415	0.071876	0.957639	0.259192	8.178180	-8.582882	-4.823955	28.153722	0.491375	29.684516	-10.753156	0.000000	6.772055	9.420133	3.577310	20.376789	0.355642	27.843002	-5.360972	0.000000	-0.267468	-1.272944	0.003706	-0.496715	-1.693016	0.003937	-0.439423	-3.095037	0.003937	-0.305689	-3.095037	0.003243	-0.248371	-2.595788	0.003011	-0.152831	-1.971791	0.002779	-1.910497	-14.399800	0.020611	0.000000	0.000000	16.898271	0.373712	7.511693	-14.389744	-47.893294	-10.542637	21.275842	45.368496	-16.019599	-2.519395	-9.614255	-43.706829	-18.668383	31.275936	71.446456	-18.787114	-8.361489
